<svg xmlns="http://www.w3.org/2000/svg" xmlns:xlink="http://www.w3.org/1999/xlink" version="1.1" baseProfile="tiny" x="0px" y="0px" viewBox="0 0 100 125" xml:space="preserve"><path fill="#1A1831" d="M34,65.7h32c1.2,0,2.2-1,2.2-2.2c0-1.2-1-2.2-2.2-2.2H34c-1.2,0-2.2,1-2.2,2.2C31.8,64.7,32.8,65.7,34,65.7z  "/><path fill="#1A1831" d="M34,52.2h32c1.2,0,2.2-1,2.2-2.2s-1-2.2-2.2-2.2H34c-1.2,0-2.2,1-2.2,2.2S32.8,52.2,34,52.2z"/><path fill="#1A1831" d="M34,38.7h32c1.2,0,2.2-1,2.2-2.2s-1-2.2-2.2-2.2H34c-1.2,0-2.2,1-2.2,2.2S32.8,38.7,34,38.7z"/></svg>