<svg xmlns="http://www.w3.org/2000/svg" xmlns:xlink="http://www.w3.org/1999/xlink" version="1.1" x="0px" y="0px" viewBox="0 0 48 60" enable-background="new 0 0 48 48" xml:space="preserve"><g><path fill="rgba(231, 76, 60,1.0)" d="M42.7,8l-7.4-7.2c-0.2-0.2-0.4-0.3-0.7-0.3H14.8c-0.9,0-1.6,0.7-1.6,1.6v2.5h13.3c1.3,0,2.6,0.5,3.5,1.4   l2.7,2.6c0,0,0.4,0.4,0.4,0V2.9c0-0.2,0.2-0.3,0.3-0.1l7.3,7.1c0.1,0.1,0,0.3-0.1,0.3h-5.8c-0.3,0-0.1,0.3-0.1,0.3l2.8,2.7   c0.9,0.9,1.4,2.1,1.4,3.4v23h2.5c0.9,0,1.6-0.7,1.6-1.6V8.6C43,8.4,42.9,8.1,42.7,8z"/><path fill="rgba(231, 76, 60,1.0)" d="M26.5,8.5H6.7C5.8,8.5,5,9.2,5,10.1v35.8c0,0.9,0.7,1.6,1.6,1.6h26.5c0.9,0,1.6-0.7,1.6-1.6V16.6   c0-0.2-0.1-0.5-0.3-0.6l-7.4-7.2C27,8.6,26.7,8.5,26.5,8.5z M26.5,18.1c-0.9,0-1.6-0.7-1.6-1.6v-5.7c0-0.2,0.2-0.3,0.3-0.1l7.3,7.1   c0.1,0.1,0,0.3-0.1,0.3H26.5z"/></g></svg>