<?xml version="1.0" encoding="utf-8"?>
<!-- Generator: Adobe Illustrator 17.0.1, SVG Export Plug-In . SVG Version: 6.00 Build 0)  -->
<!DOCTYPE svg PUBLIC "-//W3C//DTD SVG 1.1//EN" "http://www.w3.org/Graphics/SVG/1.1/DTD/svg11.dtd">
<svg version="1.1"
	 id="Layer_1" xmlns:dc="http://purl.org/dc/elements/1.1/" xmlns:cc="http://creativecommons.org/ns#" xmlns:rdf="http://www.w3.org/1999/02/22-rdf-syntax-ns#" xmlns:svg="http://www.w3.org/2000/svg"
	 xmlns="http://www.w3.org/2000/svg" xmlns:xlink="http://www.w3.org/1999/xlink" x="0px" y="0px" width="50px" height="50px"
	 viewBox="0 0 50 50" enable-background="new 0 0 50 50" xml:space="preserve" fill="rgba(231, 76, 60,1.0)">
<g transform="translate(0,-952.36216)">
	<path d="M22.879,952.638v2.293h-2.818v35.03h-2.344l0.03-8.138H9.685v-1.52h8.066l0.009-2.553H9.685v-1.52h8.083l0.009-2.553H9.686
		v-1.52h8.096l0.009-2.553H9.686v-1.52h8.113l0.017-5.295H12.06v1.465H8.35v25.709H6.223v1.913h37.553v-1.913h-2.148v-35.03h-2.814
		v-2.293H22.879L22.879,952.638z M22.516,957.595h3.313v3.591h-3.313V957.595z M32.832,958.859c3.207,0,5.807,2.6,5.807,5.807
		c0,3.207-2.6,5.807-5.807,5.807c-3.207,0-5.807-2.6-5.807-5.807C27.025,961.459,29.625,958.859,32.832,958.859L32.832,958.859z
		 M32.49,961.037v0.636c-0.509,0.071-0.882,0.268-1.119,0.589c-0.237,0.322-0.359,0.683-0.359,1.085
		c0,0.306,0.068,0.576,0.201,0.807c0.132,0.23,0.304,0.41,0.517,0.538c0.213,0.129,0.51,0.257,0.888,0.388
		c0.42,0.149,0.694,0.27,0.816,0.367c0.122,0.096,0.179,0.239,0.179,0.427c0,0.181-0.057,0.337-0.179,0.465
		c-0.122,0.128-0.313,0.192-0.572,0.192c-0.554,0-0.879-0.298-0.978-0.897l-1.067,0.278c0.215,0.953,0.774,1.475,1.674,1.567v0.816
		h0.687v-0.82c0.539-0.057,0.953-0.247,1.238-0.568c0.286-0.32,0.427-0.72,0.427-1.2c0-0.313-0.071-0.586-0.209-0.82
		c-0.139-0.233-0.323-0.414-0.555-0.547c-0.232-0.132-0.552-0.274-0.961-0.423c-0.371-0.137-0.613-0.25-0.726-0.342
		c-0.113-0.093-0.171-0.228-0.171-0.401c0-0.169,0.057-0.312,0.175-0.431c0.117-0.119,0.275-0.179,0.47-0.179
		c0.387,0,0.669,0.265,0.854,0.798l0.948-0.389c-0.226-0.778-0.722-1.21-1.49-1.302v-0.636L32.49,961.037L32.49,961.037z
		 M22.516,962.98h3.313v3.587h-3.313V962.98z M22.516,968.36h3.313v3.591h-3.313V968.36z M22.516,973.744h3.313v3.591h-3.313
		V973.744z M26.82,973.744h3.313v3.591H26.82V973.744z M31.128,973.744h3.313v3.591h-3.313V973.744z M22.516,979.128h3.313v3.587
		h-3.313V979.128z M26.82,979.128h3.313v3.587H26.82V979.128z M31.128,979.128h3.313v3.587h-3.313
		C31.128,982.715,31.128,979.128,31.128,979.128z M35.432,979.128h3.313v3.587h-3.313V979.128z"/>
</g>
</svg>
